<?xml version="1.0" encoding="UTF-8" standalone="no"?>
<!DOCTYPE svg PUBLIC "-//W3C//DTD SVG 1.1//EN"
 "http://www.w3.org/Graphics/SVG/1.1/DTD/svg11.dtd">
<!-- Generated by graphviz version 2.47.1 (20210417.1919)
 -->
<!-- Title: JankenPlayerTypeB Pages: 1 -->
<svg width="216pt" height="152pt"
 viewBox="0.00 0.00 215.50 152.00" xmlns="http://www.w3.org/2000/svg" xmlns:xlink="http://www.w3.org/1999/xlink">
<g id="graph0" class="graph" transform="scale(1 1) rotate(0) translate(4 148)">
<title>JankenPlayerTypeB</title>
<polygon fill="white" stroke="transparent" points="-4,4 -4,-148 211.5,-148 211.5,4 -4,4"/>
<!-- Node1 -->
<g id="node1" class="node">
<title>Node1</title>
<g id="a_node1"><a xlink:title=" ">
<polygon fill="#bfbfbf" stroke="black" points="4.5,-0.5 4.5,-19.5 108.5,-19.5 108.5,-0.5 4.5,-0.5"/>
<text text-anchor="middle" x="56.5" y="-7.5" font-family="Helvetica,sans-Serif" font-size="10.00">JankenPlayerTypeB</text>
</a>
</g>
</g>
<!-- Node2 -->
<g id="node2" class="node">
<title>Node2</title>
<g id="a_node2"><a xlink:href="class_random_janken_player.html" target="_top" xlink:title=" ">
<polygon fill="white" stroke="black" points="0,-57.5 0,-76.5 113,-76.5 113,-57.5 0,-57.5"/>
<text text-anchor="middle" x="56.5" y="-64.5" font-family="Helvetica,sans-Serif" font-size="10.00">RandomJankenPlayer</text>
</a>
</g>
</g>
<!-- Node2&#45;&gt;Node1 -->
<g id="edge1" class="edge">
<title>Node2&#45;&gt;Node1</title>
<path fill="none" stroke="midnightblue" d="M43.7,-47.73C42.22,-38.29 43.09,-27.22 46.32,-19.71"/>
<polygon fill="midnightblue" stroke="midnightblue" points="40.34,-48.7 46.38,-57.41 47.08,-46.84 40.34,-48.7"/>
</g>
<!-- Node2&#45;&gt;Node1 -->
<g id="edge3" class="edge">
<title>Node2&#45;&gt;Node1</title>
<path fill="none" stroke="midnightblue" d="M56.5,-47.12C56.5,-37.82 56.5,-27.06 56.5,-19.71"/>
<polygon fill="midnightblue" stroke="midnightblue" points="53,-47.41 56.5,-57.41 60,-47.41 53,-47.41"/>
</g>
<!-- Node2&#45;&gt;Node1 -->
<g id="edge4" class="edge">
<title>Node2&#45;&gt;Node1</title>
<path fill="none" stroke="midnightblue" d="M69.3,-47.73C70.78,-38.29 69.91,-27.22 66.68,-19.71"/>
<polygon fill="midnightblue" stroke="midnightblue" points="65.92,-46.84 66.62,-57.41 72.66,-48.7 65.92,-46.84"/>
</g>
<!-- Node3 -->
<g id="node3" class="node">
<title>Node3</title>
<g id="a_node3"><a xlink:title=" ">
<polygon fill="white" stroke="#bfbfbf" points="35.5,-124.5 35.5,-143.5 77.5,-143.5 77.5,-124.5 35.5,-124.5"/>
<text text-anchor="middle" x="56.5" y="-131.5" font-family="Helvetica,sans-Serif" font-size="10.00">String</text>
</a>
</g>
</g>
<!-- Node3&#45;&gt;Node2 -->
<g id="edge2" class="edge">
<title>Node3&#45;&gt;Node2</title>
<path fill="none" stroke="#9a32cd" stroke-dasharray="5,2" d="M56.5,-114.04C56.5,-101.67 56.5,-86.12 56.5,-76.63"/>
<polygon fill="#9a32cd" stroke="#9a32cd" points="53,-114.23 56.5,-124.23 60,-114.23 53,-114.23"/>
<text text-anchor="middle" x="70.5" y="-98" font-family="Helvetica,sans-Serif" font-size="10.00"> name</text>
</g>
<!-- Node4 -->
<g id="node4" class="node">
<title>Node4</title>
<g id="a_node4"><a xlink:href="class_janken_player.html" target="_top" xlink:title=" ">
<polygon fill="white" stroke="black" points="131.5,-57.5 131.5,-76.5 207.5,-76.5 207.5,-57.5 131.5,-57.5"/>
<text text-anchor="middle" x="169.5" y="-64.5" font-family="Helvetica,sans-Serif" font-size="10.00">JankenPlayer</text>
</a>
</g>
</g>
<!-- Node4&#45;&gt;Node1 -->
<g id="edge5" class="edge">
<title>Node4&#45;&gt;Node1</title>
<path fill="none" stroke="midnightblue" d="M142.7,-52.96C121.46,-42.62 92.39,-28.47 74.03,-19.53"/>
<polygon fill="midnightblue" stroke="midnightblue" points="141.32,-56.18 151.84,-57.41 144.38,-49.88 141.32,-56.18"/>
</g>
</g>
</svg>
