<?xml version="1.0" encoding="UTF-8" standalone="no"?>
<!DOCTYPE svg PUBLIC "-//W3C//DTD SVG 1.1//EN"
 "http://www.w3.org/Graphics/SVG/1.1/DTD/svg11.dtd">
<!-- Generated by graphviz version 2.47.1 (20210417.1919)
 -->
<!-- Title: A Pages: 1 -->
<svg width="164pt" height="95pt"
 viewBox="0.00 0.00 163.50 95.00" xmlns="http://www.w3.org/2000/svg" xmlns:xlink="http://www.w3.org/1999/xlink">
<g id="graph0" class="graph" transform="scale(1 1) rotate(0) translate(4 91)">
<title>A</title>
<polygon fill="white" stroke="transparent" points="-4,4 -4,-91 159.5,-91 159.5,4 -4,4"/>
<!-- Node1 -->
<g id="node1" class="node">
<title>Node1</title>
<g id="a_node1"><a xlink:title=" ">
<polygon fill="#bfbfbf" stroke="black" points="58,-0.5 58,-19.5 87,-19.5 87,-0.5 58,-0.5"/>
<text text-anchor="middle" x="72.5" y="-7.5" font-family="Helvetica,sans-Serif" font-size="10.00">A</text>
</a>
</g>
</g>
<!-- Node2 -->
<g id="node2" class="node">
<title>Node2</title>
<g id="a_node2"><a xlink:title=" ">
<polygon fill="white" stroke="#bfbfbf" points="0,-67.5 0,-86.5 29,-86.5 29,-67.5 0,-67.5"/>
<text text-anchor="middle" x="14.5" y="-74.5" font-family="Helvetica,sans-Serif" font-size="10.00">int</text>
</a>
</g>
</g>
<!-- Node2&#45;&gt;Node1 -->
<g id="edge1" class="edge">
<title>Node2&#45;&gt;Node1</title>
<path fill="none" stroke="#9a32cd" stroke-dasharray="5,2" d="M29.1,-59.63C40.45,-46.92 55.73,-29.8 64.8,-19.63"/>
<polygon fill="#9a32cd" stroke="#9a32cd" points="26.37,-57.44 22.32,-67.23 31.59,-62.1 26.37,-57.44"/>
<text text-anchor="middle" x="50.5" y="-41" font-family="Helvetica,sans-Serif" font-size="10.00"> i</text>
</g>
<!-- Node3 -->
<g id="node3" class="node">
<title>Node3</title>
<g id="a_node3"><a xlink:title=" ">
<polygon fill="white" stroke="#bfbfbf" points="47.5,-67.5 47.5,-86.5 97.5,-86.5 97.5,-67.5 47.5,-67.5"/>
<text text-anchor="middle" x="72.5" y="-74.5" font-family="Helvetica,sans-Serif" font-size="10.00">boolean</text>
</a>
</g>
</g>
<!-- Node3&#45;&gt;Node1 -->
<g id="edge2" class="edge">
<title>Node3&#45;&gt;Node1</title>
<path fill="none" stroke="#9a32cd" stroke-dasharray="5,2" d="M72.5,-57.04C72.5,-44.67 72.5,-29.12 72.5,-19.63"/>
<polygon fill="#9a32cd" stroke="#9a32cd" points="69,-57.23 72.5,-67.23 76,-57.23 69,-57.23"/>
<text text-anchor="middle" x="77" y="-41" font-family="Helvetica,sans-Serif" font-size="10.00"> b</text>
</g>
<!-- Node4 -->
<g id="node4" class="node">
<title>Node4</title>
<g id="a_node4"><a xlink:title=" ">
<polygon fill="white" stroke="#bfbfbf" points="115.5,-67.5 115.5,-86.5 155.5,-86.5 155.5,-67.5 115.5,-67.5"/>
<text text-anchor="middle" x="135.5" y="-74.5" font-family="Helvetica,sans-Serif" font-size="10.00">Hand</text>
</a>
</g>
</g>
<!-- Node4&#45;&gt;Node1 -->
<g id="edge3" class="edge">
<title>Node4&#45;&gt;Node1</title>
<path fill="none" stroke="#9a32cd" stroke-dasharray="5,2" d="M119.99,-60C107.63,-47.25 90.81,-29.89 80.86,-19.63"/>
<polygon fill="#9a32cd" stroke="#9a32cd" points="117.53,-62.49 127,-67.23 122.56,-57.62 117.53,-62.49"/>
<text text-anchor="middle" x="112" y="-41" font-family="Helvetica,sans-Serif" font-size="10.00"> h</text>
</g>
</g>
</svg>
