<?xml version="1.0" encoding="UTF-8" standalone="no"?>
<!DOCTYPE svg PUBLIC "-//W3C//DTD SVG 1.1//EN"
 "http://www.w3.org/Graphics/SVG/1.1/DTD/svg11.dtd">
<!-- Generated by graphviz version 2.47.1 (20210417.1919)
 -->
<!-- Title: RandomJankenPlayer Pages: 1 -->
<svg width="257pt" height="84pt"
 viewBox="0.00 0.00 256.50 84.00" xmlns="http://www.w3.org/2000/svg" xmlns:xlink="http://www.w3.org/1999/xlink">
<g id="graph0" class="graph" transform="scale(1 1) rotate(0) translate(4 80)">
<title>RandomJankenPlayer</title>
<polygon fill="white" stroke="transparent" points="-4,4 -4,-80 252.5,-80 252.5,4 -4,4"/>
<!-- Node1 -->
<g id="node1" class="node">
<title>Node1</title>
<g id="a_node1"><a xlink:title=" ">
<polygon fill="#bfbfbf" stroke="black" points="135.5,-56.5 135.5,-75.5 248.5,-75.5 248.5,-56.5 135.5,-56.5"/>
<text text-anchor="middle" x="192" y="-63.5" font-family="Helvetica,sans-Serif" font-size="10.00">RandomJankenPlayer</text>
</a>
</g>
</g>
<!-- Node2 -->
<g id="node2" class="node">
<title>Node2</title>
<g id="a_node2"><a xlink:href="class_interactive_janken_player.html" target="_top" xlink:title=" ">
<polygon fill="white" stroke="black" points="0,-0.5 0,-19.5 122,-19.5 122,-0.5 0,-0.5"/>
<text text-anchor="middle" x="61" y="-7.5" font-family="Helvetica,sans-Serif" font-size="10.00">InteractiveJankenPlayer</text>
</a>
</g>
</g>
<!-- Node1&#45;&gt;Node2 -->
<g id="edge1" class="edge">
<title>Node1&#45;&gt;Node2</title>
<path fill="none" stroke="midnightblue" d="M161.68,-52.5C137.12,-42.38 103.18,-28.39 81.66,-19.52"/>
<polygon fill="midnightblue" stroke="midnightblue" points="160.66,-55.87 171.24,-56.44 163.33,-49.4 160.66,-55.87"/>
</g>
<!-- Node3 -->
<g id="node3" class="node">
<title>Node3</title>
<g id="a_node3"><a xlink:href="class_janken_player_type_b.html" target="_top" xlink:title=" ">
<polygon fill="white" stroke="black" points="140,-0.5 140,-19.5 244,-19.5 244,-0.5 140,-0.5"/>
<text text-anchor="middle" x="192" y="-7.5" font-family="Helvetica,sans-Serif" font-size="10.00">JankenPlayerTypeB</text>
</a>
</g>
</g>
<!-- Node1&#45;&gt;Node3 -->
<g id="edge2" class="edge">
<title>Node1&#45;&gt;Node3</title>
<path fill="none" stroke="midnightblue" d="M179.1,-46.4C177.77,-37.36 178.65,-26.94 181.74,-19.75"/>
<polygon fill="midnightblue" stroke="midnightblue" points="175.72,-47.31 181.67,-56.08 182.49,-45.52 175.72,-47.31"/>
</g>
<!-- Node1&#45;&gt;Node3 -->
<g id="edge3" class="edge">
<title>Node1&#45;&gt;Node3</title>
<path fill="none" stroke="midnightblue" d="M192,-45.8C192,-36.91 192,-26.78 192,-19.75"/>
<polygon fill="midnightblue" stroke="midnightblue" points="188.5,-46.08 192,-56.08 195.5,-46.08 188.5,-46.08"/>
</g>
<!-- Node1&#45;&gt;Node3 -->
<g id="edge4" class="edge">
<title>Node1&#45;&gt;Node3</title>
<path fill="none" stroke="midnightblue" d="M204.9,-46.4C206.23,-37.36 205.35,-26.94 202.26,-19.75"/>
<polygon fill="midnightblue" stroke="midnightblue" points="201.51,-45.52 202.33,-56.08 208.28,-47.31 201.51,-45.52"/>
</g>
</g>
</svg>
